<svg width="45" height="45" viewBox="0 0 45 45" fill="none" xmlns="http://www.w3.org/2000/svg">
<g style="mix-blend-mode:overlay">
<path d="M22.5039 39.4519C17.8914 39.4519 17.3477 39.4275 15.5477 39.3488C14.144 39.3026 12.7585 39.0173 11.4508 38.505C9.18824 37.6245 7.39917 35.8348 6.51953 33.5719C6.02698 32.2595 5.76131 30.8728 5.73391 29.4713C5.62891 27.675 5.62891 27.0863 5.62891 22.5094C5.62891 17.8838 5.65328 17.3438 5.73391 15.5531C5.76191 14.1535 6.02757 12.7688 6.51953 11.4581C7.39821 9.19227 9.19019 7.40097 11.4564 6.52315C12.7664 6.02853 14.1514 5.76217 15.5514 5.73565C17.342 5.6344 17.9308 5.6344 22.5039 5.6344C27.1539 5.6344 27.6883 5.65877 29.4602 5.73565C30.8638 5.7624 32.2525 6.02873 33.5664 6.52315C35.832 7.40197 37.6236 9.19292 38.5033 11.4581C39.0041 12.7879 39.2712 14.1942 39.2927 15.615C39.3977 17.4113 39.3977 17.9981 39.3977 22.5731C39.3977 27.1481 39.3714 27.7481 39.2927 29.5238C39.2647 30.9266 38.9984 32.3146 38.5051 33.6281C37.6233 35.8926 35.8315 37.683 33.5664 38.5631C32.2544 39.0548 30.8685 39.3204 29.4677 39.3488C27.677 39.4519 27.0902 39.4519 22.5039 39.4519ZM22.4402 8.60252C17.8539 8.60252 17.3777 8.62502 15.587 8.70565C14.5183 8.71981 13.4598 8.91704 12.4577 9.28877C10.9778 9.85504 9.80683 11.0213 9.23453 12.4988C8.85993 13.5118 8.66267 14.5819 8.65141 15.6619C8.55203 17.4788 8.55203 17.955 8.55203 22.5094C8.55203 27.0094 8.56891 27.555 8.65141 29.3606C8.66819 30.4298 8.86534 31.4884 9.23453 32.4919C9.80767 33.9684 10.9785 35.1338 12.4577 35.7C13.4591 36.0742 14.518 36.2715 15.587 36.2831C17.402 36.3881 17.8802 36.3881 22.4402 36.3881C27.0395 36.3881 27.5158 36.3656 29.2914 36.2831C30.3609 36.2701 31.4202 36.0729 32.4227 35.7C33.8935 35.1289 35.0569 33.9662 35.6289 32.4956C36.0028 31.4817 36.2 30.4112 36.212 29.3306H36.2327C36.3133 27.5381 36.3133 27.06 36.3133 22.4794C36.3133 17.8988 36.2927 17.4169 36.212 15.6263C36.1952 14.5584 35.9981 13.501 35.6289 12.4988C35.0582 11.0261 33.8947 9.8612 32.4227 9.28877C31.4204 8.91516 30.361 8.71788 29.2914 8.70565C27.4783 8.60252 27.0039 8.60252 22.4402 8.60252ZM22.5039 31.17C18.9976 31.1723 15.8353 29.062 14.4918 25.8234C13.1482 22.5847 13.8881 18.8556 16.3663 16.3753C18.8446 13.8949 22.573 13.1518 25.8128 14.4925C29.0526 15.8333 31.1656 18.9938 31.1664 22.5C31.1612 27.2833 27.2871 31.1607 22.5039 31.17ZM22.5039 16.8713C19.3973 16.8713 16.8789 19.3897 16.8789 22.4963C16.8789 25.6029 19.3973 28.1213 22.5039 28.1213C25.6105 28.1213 28.1289 25.6029 28.1289 22.4963C28.1217 19.3927 25.6075 16.8785 22.5039 16.8713ZM31.5039 15.5344C30.3891 15.5303 29.4881 14.6243 29.4902 13.5094C29.4922 12.3946 30.3966 11.4919 31.5114 11.4919C32.6262 11.4919 33.5306 12.3946 33.5327 13.5094C33.5332 14.0473 33.3195 14.5632 32.9388 14.9432C32.5581 15.3231 32.0418 15.5359 31.5039 15.5344Z" fill="white"/>
</g>
</svg>
