<svg width="71" height="71" viewBox="0 0 71 71" fill="none" xmlns="http://www.w3.org/2000/svg">
<g id="language">
<path id="Oval" fill-rule="evenodd" clip-rule="evenodd" d="M35.5013 65.0834C51.8397 65.0834 65.0846 51.8385 65.0846 35.5001C65.0846 19.1617 51.8397 5.91675 35.5013 5.91675C19.1629 5.91675 5.91797 19.1617 5.91797 35.5001C5.91797 51.8385 19.1629 65.0834 35.5013 65.0834Z" stroke="white" stroke-width="5"/>
<path id="Oval_2" fill-rule="evenodd" clip-rule="evenodd" d="M35.5013 62.125C35.5013 62.125 47.3346 52.4432 47.3346 35.5C47.3346 18.5568 35.5013 8.875 35.5013 8.875C35.5013 8.875 23.668 18.5568 23.668 35.5C23.668 52.4432 35.5013 62.125 35.5013 62.125Z" stroke="white" stroke-width="5"/>
<path id="Line" d="M7.39714 26.6251H63.6055" stroke="white" stroke-width="5" stroke-linecap="round"/>
<path id="Line_2" d="M7.39714 44.3751H63.6055" stroke="white" stroke-width="5" stroke-linecap="round"/>
</g>
</svg>
